HIERARCHY
ROOT hip
{
	OFFSET 0.000000 0.000000 0.000000 
	CHANNELS 6 Xposition Yposition Zposition Xrotation Zrotation Yrotation
	JOINT abdomen
	{
		OFFSET 0.000000 3.402643 0.000000 
		CHANNELS 3 Xrotation Zrotation Yrotation
		JOINT chest
		{
			OFFSET 0.000000 8.438565 -0.680529 
			CHANNELS 3 Xrotation Zrotation Yrotation
			JOINT neck
			{
				OFFSET 0.000000 10.207942 -0.272212 
				CHANNELS 3 Xrotation Zrotation Yrotation
				JOINT head
				{
					OFFSET 0.000000 3.130431 0.000000 
					CHANNELS 3 Xrotation Zrotation Yrotation
					End Site
					{
						OFFSET 0.000000 3.130435 0.000000 
					}
				}
			}
			JOINT lCollar
			{
				OFFSET 3.470700 6.669187 -0.816635 
				CHANNELS 3 Yrotation Zrotation Xrotation
				JOINT lShldr
				{
					OFFSET 3.198488 0.000000 0.000000 
					CHANNELS 3 Zrotation Yrotation Xrotation
					JOINT lForeArm
					{
						OFFSET 10.139888 0.000000 0.000000 
						CHANNELS 3 Yrotation Zrotation Xrotation
						JOINT lHand
						{
							OFFSET 8.370511 0.000000 0.000000 
							CHANNELS 3 Zrotation Yrotation Xrotation
							End Site
							{
								OFFSET 4.083176 0.000000 0.000000 
							}
						}
					}
				}
			}
			JOINT rCollar
			{
				OFFSET -3.470700 6.669187 -0.816635 
				CHANNELS 3 Yrotation Zrotation Xrotation
				JOINT rShldr
				{
					OFFSET -3.198488 0.000000 0.000000 
					CHANNELS 3 Zrotation Yrotation Xrotation
					JOINT rForeArm
					{
						OFFSET -10.139888 0.000000 0.000000 
						CHANNELS 3 Yrotation Zrotation Xrotation
						JOINT rHand
						{
							OFFSET -8.370511 0.000000 0.000000 
							CHANNELS 3 Zrotation Yrotation Xrotation
							End Site
							{
								OFFSET -4.083176 0.000000 0.000000 
							}
						}
					}
				}
			}
		}
	}
	JOINT lThigh
	{
		OFFSET 5.308129 -1.633274 1.361059 
		CHANNELS 3 Xrotation Zrotation Yrotation
		JOINT lShin
		{
			OFFSET -2.041588 -20.007561 0.000000 
			CHANNELS 3 Xrotation Zrotation Yrotation
			JOINT lFoot
			{
				OFFSET 0.000000 -19.190928 -1.224953 
				CHANNELS 3 Xrotation Yrotation Zrotation
				End Site
				{
					OFFSET 0.000000 -2.449906 4.627600 
				}
			}
		}
	}
	JOINT rThigh
	{
		OFFSET -5.308129 -1.633274 1.361059 
		CHANNELS 3 Xrotation Zrotation Yrotation
		JOINT rShin
		{
			OFFSET 2.041588 -20.007561 0.000000 
			CHANNELS 3 Xrotation Zrotation Yrotation
			JOINT rFoot
			{
				OFFSET 0.000000 -19.190928 -1.224953 
				CHANNELS 3 Xrotation Yrotation Zrotation
				End Site
				{
					OFFSET 0.000000 -2.449906 4.627600 
				}
			}
		}
	}
}
MOTION
Frames: 8
Frame Time: 0.033333
9.655984 45.284630 11.050791 17.503502 -7.213974 -47.763584 0.000000 0.000000 0.000000 0.136805 -4.637482 5.417398 41.974205 -4.833723 -0.598522 -19.693428 3.444402 2.338566 0.165876 24.577654 24.455540 -18.459581 15.280501 -30.985300 -98.852005 35.466274 47.787498 -17.259066 -4.553845 -53.909744 32.552731 -30.000000 25.000000 55.113068 19.318937 68.879723 -24.347326 -71.075615 -34.459801 21.516636 6.476580 -80.779984 -10.906144 13.324017 21.243174 69.533684 1.838946 -2.449914 -19.086910 1.472073 -31.560524 -32.638966 -8.396608 -0.137113 49.156254 -3.766833 2.676241 20.496561 34.182915 18.230650 
11.051158 45.756504 11.502555 20.719961 -10.052181 -44.148968 0.000000 0.000000 0.000000 2.285641 -5.339156 5.226959 42.771648 -4.589603 -0.587966 -20.243006 0.107416 0.605486 -6.192698 26.617056 24.987743 -12.624803 3.952171 -29.779339 -90.859673 32.615681 44.325657 -20.712133 -2.657655 -55.096382 31.419519 -30.000000 25.000000 59.576195 10.772582 72.702286 -29.236984 -72.493958 -40.575893 19.935352 8.641281 -80.707764 -17.505867 15.441628 21.359430 73.221298 5.167838 -1.826566 -12.788148 3.648923 -35.513790 -35.379089 -12.138394 -1.086407 55.771061 -3.623156 3.320641 17.534119 21.058138 18.034485 
12.564592 45.766773 11.919475 26.276022 -12.545517 -41.961399 0.000000 0.000000 0.000000 2.943866 -3.897908 5.520259 42.901573 -4.208792 -0.548984 -19.279009 -2.578099 0.254088 -12.347140 28.960051 24.983627 -11.206893 -6.033131 -29.454870 -83.884987 31.386936 41.159538 -21.596579 -1.952340 -56.465679 30.147911 -30.000000 25.000000 62.020058 3.766317 75.418007 -34.384296 -72.818634 -47.642544 18.616041 10.009570 -80.676674 -31.073498 19.159397 20.609745 83.330948 9.365336 -1.051400 0.439946 -2.156265 -30.808395 -39.323071 -15.575246 -1.982662 61.740349 -2.958253 4.036988 19.223118 17.443060 14.011128 
14.255280 44.834892 12.803109 30.015505 -14.519905 -42.671745 0.000000 0.000000 0.000000 3.691159 -2.292720 5.844529 43.730446 -5.790614 -0.677287 -19.250633 -3.680530 1.408991 -15.469434 29.349781 24.982634 -13.502791 -14.211822 -29.447712 -81.033844 29.003868 42.912720 -21.447660 -2.423254 -57.282383 31.745277 -30.000000 25.000000 62.763229 0.119185 76.681351 -39.562862 -73.270180 -52.724636 18.286249 11.173486 -80.518929 -41.699268 21.308796 19.213600 94.976784 6.965931 -1.664685 21.624985 -6.089032 -30.026724 -41.774666 -20.486954 -3.463105 66.713745 -3.368663 4.378479 21.025869 19.691141 11.863621 
16.000881 42.750156 14.054577 31.650885 -16.033354 -47.084827 0.000000 0.000000 0.000000 4.638910 -1.194470 6.055809 44.744415 -8.963684 -0.929581 -20.317305 -3.867660 3.973585 -12.641657 28.408918 24.991076 -19.673098 -20.969398 -29.125750 -81.817139 22.032251 48.072392 -18.379627 -3.203063 -58.235062 35.293819 -30.000000 25.000000 61.240822 0.099282 75.977669 -46.144791 -75.634590 -55.319672 18.639174 12.125163 -80.253029 -47.107517 24.695391 19.178621 111.403648 -5.959205 -4.495946 31.093348 -0.965423 -34.828003 -44.145042 -25.064919 -4.974780 70.643799 -5.927713 4.203143 21.373384 20.156910 12.860466 
17.644411 39.819801 15.379226 32.869644 -17.211231 -52.856201 0.000000 0.000000 0.000000 5.488222 -1.009922 6.075165 44.306484 -10.994208 -1.074439 -19.846727 -2.468917 7.506880 -9.686799 25.903162 24.973709 -26.723980 -20.814861 -27.946049 -85.274109 14.302156 54.240971 -14.456928 -6.329701 -58.437378 37.632313 -30.000000 25.000000 60.040489 2.904853 74.761269 -57.051342 -77.928307 -59.018799 19.168095 12.829978 -79.877480 -49.081242 28.485441 20.176432 125.005180 -17.014578 -6.929928 30.788805 -0.709257 -30.698351 -47.687546 -28.929827 -6.207094 73.380249 -9.558936 3.630215 21.529148 17.887833 12.223642 
19.161678 36.289391 16.782673 34.141071 -18.569361 -58.097782 0.000000 0.000000 0.000000 6.251460 -1.291767 5.977900 43.413147 -11.160158 -1.085906 -18.579239 -0.758353 10.586808 -7.779403 23.390980 24.982351 -32.835358 -17.005173 -26.628363 -88.753258 6.646508 61.566849 -12.101261 -9.194489 -58.352989 39.259613 -30.000000 25.000000 60.962704 6.303184 74.340721 -66.228828 -77.054268 -62.494823 20.602268 12.730085 -79.555725 -49.040157 30.669991 21.100325 130.142258 -23.489506 -8.586834 29.879244 0.358011 -24.841795 -51.138340 -32.945766 -7.594474 74.420845 -12.626239 3.111121 22.977240 14.969492 8.817294 
20.301880 32.566936 18.106216 37.659466 -22.967285 -67.560478 0.000000 0.000000 0.000000 8.418265 0.960778 6.397547 42.500359 -13.385724 -1.226859 -18.762199 1.795936 14.558167 -0.935433 20.906879 24.927664 -37.502472 -12.980610 -25.685404 -86.899437 -3.320245 71.274452 -6.656940 -6.168137 -59.932949 44.982658 -30.000000 25.000000 63.588604 11.843424 74.162994 -69.668732 -69.687248 -65.899017 22.025688 11.181205 -79.598297 -44.618607 37.527901 25.643280 126.957954 -22.070259 -8.289209 29.070644 1.649477 -23.207458 -52.038765 -30.515923 -6.555523 74.036285 -13.484475 2.890491 23.829975 11.791978 7.967005 
